<svg xmlns="http://www.w3.org/2000/svg" version="1.1" xmlns:xlink="http://www.w3.org/1999/xlink" width="1500" height="93" viewBox="0 0 1500 93"><svg xml:space="preserve" width="1500" height="93" data-version="2" data-id="lg_FsrukepgGYbCuRCsxi" viewBox="0 0 565 93" x="0" y="0"><rect width="100%" height="100%" fill="transparent"></rect><path fill="#186e23" d="M158.765 88.232q-2.91 0-5.09-1.93-2.18-1.93-2.18-4.88v-9.54h7.63v7.31q0 1.5.43 2t1.84.5h7.49v6.54Zm-3.45-12.53q-9.77 0-16.87-4.11-7.11-4.11-10.95-11.7-3.83-7.58-3.83-17.98 0-10.44 3.83-18 3.84-7.56 10.95-11.67 7.1-4.11 16.87-4.11 9.76 0 16.87 4.11 7.1 4.11 10.94 11.67t3.84 18q0 10.4-3.84 17.98-3.84 7.59-10.94 11.7-7.11 4.11-16.87 4.11m0-6.72q7.04 0 12.14-3.3 5.11-3.29 7.88-9.37 2.77-6.09 2.77-14.4 0-8.35-2.77-14.42-2.77-6.06-7.88-9.35-5.1-3.29-12.14-3.29-7 0-12.13 3.29-5.13 3.29-7.9 9.35-2.77 6.07-2.77 14.42 0 8.31 2.77 14.4 2.77 6.08 7.9 9.37 5.13 3.3 12.13 3.3"></path><rect width="63.3" height="80.1" x="-31.65" y="-40.05" fill="none" rx="0" ry="0" transform="translate(155.81 48.68)"></rect><path fill="#186e23" d="M213.725 75.702q-5.13 0-8.9-2.32-3.77-2.31-5.81-6.63-2.04-4.31-2.04-10.31v-30.88h7.62v30.29q0 6 2.27 9.74 2.28 3.75 8.18 3.75 4.4 0 7.63-2.27 3.22-2.27 5.02-6.81 1.79-4.54 1.79-11.36v-23.34h7.63v49.05h-7.18v-11.54l.32 2q-1.91 4.54-6.15 7.58-4.25 3.05-10.38 3.05"></path><rect width="40.14" height="50.14" x="-20.07" y="-25.07" fill="none" rx="0" ry="0" transform="translate(217.54 51.13)"></rect><path fill="#186e23" d="M250.755 74.612v-49.05h7.63v49.05Zm3.81-57.27q-2.63 0-4.49-1.86-1.86-1.86-1.86-4.49 0-2.68 1.86-4.52 1.86-1.84 4.49-1.84 2.68 0 4.52 1.84 1.84 1.84 1.84 4.52 0 2.63-1.84 4.49-1.84 1.86-4.52 1.86"></path><rect width="12.71" height="69.98" x="-6.36" y="-34.99" fill="none" rx="0" ry="0" transform="translate(255.07 40.12)"></rect><path fill="#186e23" d="M291.325 75.702q-6.91 0-11.95-3.14-5.04-3.13-7.76-8.87-2.73-5.75-2.73-13.6 0-7.86 2.73-13.6 2.72-5.75 7.76-8.88 5.04-3.14 11.95-3.14 5.26 0 9.42 1.93 4.15 1.93 7.04 5.54 2.88 3.61 4.24 8.7l-7.76 2.04q-1.27-5.72-4.57-8.78-3.29-3.07-8.37-3.07-6.77 0-10.43 5.02-3.65 5.02-3.65 14.24 0 9.26 3.65 14.25 3.66 5 10.43 5 5.04 0 8.31-2.97 3.27-2.98 4.58-8.61l7.72 2.18q-1.09 3.72-2.99 6.63-1.91 2.91-4.52 4.95-2.61 2.04-5.91 3.11-3.29 1.07-7.19 1.07"></path><rect width="43.14" height="51.23" x="-21.57" y="-25.61" fill="none" rx="0" ry="0" transform="translate(290.95 50.59)"></rect><path fill="#186e23" d="M321.855 74.612V6.492h7.63v41.01l23.02-21.94h10.4l-20.25 18.62 20.66 30.43h-9.04l-17.16-25.34-7.63 7.04v18.3Z"></path><rect width="41.46" height="68.12" x="-20.73" y="-34.06" fill="none" rx="0" ry="0" transform="translate(343.08 41.05)"></rect><path fill="#186e23" d="M371.365 74.612v-49.05h7.18v8.4q1.72-3.81 5.72-6.65 4-2.84 9.49-2.84 4.86 0 8.47 2.66 3.61 2.66 5.38 7.52 2.32-4.5 6.34-7.34 4.01-2.84 9.37-2.84 7.04 0 11.15 5.11t4.11 14.15v30.88h-7.63v-30.29q0-4.18-.86-7.2-.86-3.02-2.84-4.65-1.97-1.64-5.38-1.64-3.72 0-6.7 2.11-2.97 2.11-4.68 6.16-1.7 4.04-1.7 9.85v25.66h-7.63v-30.29q0-4.18-.86-7.2-.86-3.02-2.82-4.65-1.95-1.64-5.31-1.64-3.72 0-6.72 2.09-3 2.09-4.72 6.13-1.73 4.04-1.73 9.9v25.66Z"></path><rect width="67.21" height="50.14" x="-33.6" y="-25.07" fill="none" rx="0" ry="0" transform="translate(405.47 50.04)"></rect><path fill="#186e23" d="M464.115 75.702q-4.91 0-8.52-1.89-3.61-1.88-5.56-5.15-1.95-3.27-1.95-7.4 0-4.41 2.59-8.13 2.58-3.73 8.01-5.97 5.43-2.25 13.92-2.25h8.17l-.81.82v-2.68q0-5.91-2.37-9.06-2.36-3.16-7.9-3.16-5.22 0-8.03 2.7-2.82 2.71-3 7.25l-8.58-1.96q.4-3.95 3.02-7.19 2.61-3.25 6.99-5.2 4.38-1.96 10.15-1.96 5.95 0 9.69 2.25 3.75 2.25 5.52 6.47 1.77 4.23 1.77 10.17v22.39q0 1.5.43 2t1.84.5h2.77v6.36h-4.86q-3.08 0-5.17-1.93t-2.09-4.88v-3.46h1.13q-.72 1.91-2.09 3.89-1.36 1.97-3.45 3.68-2.09 1.7-4.97 2.74-2.88 1.05-6.65 1.05m1.72-6.36q3.77 0 7-1.86 3.22-1.86 5.2-5.84 1.97-3.97 1.97-10.33v-.41h-7.67q-6.04 0-9.52 1.59-3.47 1.59-4.92 3.93-1.46 2.34-1.46 4.65 0 2.32 1.05 4.18 1.04 1.86 3.13 2.98 2.09 1.11 5.22 1.11"></path><rect width="44.18" height="51.23" x="-22.09" y="-25.61" fill="none" rx="0" ry="0" transform="translate(470.68 50.59)"></rect><path fill="#186e23" d="M501.595 74.612v-49.05h7.17v10.4l-.27-1.18q2.18-5.08 6.56-7.69 4.38-2.62 8.88-2.62 1.32 0 2.57.23 1.24.23 2.33.77l-.99 7.18q-2.5-.77-4.95-.77-1.55 0-3.84.61t-4.54 2.45q-2.25 1.84-3.77 5.47-1.52 3.64-1.52 9.68v24.52Z"></path><rect width="27.24" height="50.14" x="-13.62" y="-25.07" fill="none" rx="0" ry="0" transform="translate(515.72 50.04)"></rect><path fill="#186e23" d="M548.205 74.612q-2.91 0-5.09-1.93-2.18-1.93-2.18-4.88v-35.88h-7.9v-6.36h7.9v-10.26l7.63-1.63v11.89h9.72v6.36h-9.72v33.83q0 1.5.43 2t1.84.5h7.49v6.36Z"></path><rect width="25.29" height="60.94" x="-12.64" y="-30.47" fill="none" rx="0" ry="0" transform="translate(546.18 44.64)"></rect><path fill="#186e23" d="M6.798 3.334h16.555V7.4H13.43a1.121 1.121 0 0 0-1.12 1.12v81.146a1.121 1.121 0 0 0 1.121 1.121h74.187a1.121 1.121 0 0 0 1.12-1.121V8.52a1.121 1.121 0 0 0-1.12-1.121h-9.922V3.334h16.556a1.121 1.121 0 0 0 0-2.242H6.798a1.121 1.121 0 0 0 0 2.242m79.698 6.308v78.904H14.554V9.642h8.8v4.292c-2.247.513-3.933 2.518-3.933 4.919a5.06 5.06 0 0 0 5.054 5.054 5.06 5.06 0 0 0 5.053-5.054c0-2.4-1.685-4.405-3.932-4.919V9.642h49.86v4.292a5.055 5.055 0 0 0-3.932 4.919 5.06 5.06 0 0 0 5.053 5.054 5.06 5.06 0 0 0 5.055-5.054 5.054 5.054 0 0 0-3.934-4.919V9.642zM24.474 19.974a1.121 1.121 0 0 0 1.121-1.121v-2.574a2.814 2.814 0 0 1 1.69 2.574 2.814 2.814 0 0 1-2.811 2.812 2.814 2.814 0 0 1-2.812-2.812c0-1.152.697-2.14 1.69-2.574v2.574a1.121 1.121 0 0 0 1.122 1.121m52.102 0a1.121 1.121 0 0 0 1.121-1.121v-2.574a2.813 2.813 0 0 1 1.691 2.574 2.814 2.814 0 0 1-2.812 2.812 2.814 2.814 0 0 1-2.81-2.812c0-1.152.697-2.14 1.689-2.574v2.574a1.121 1.121 0 0 0 1.121 1.121M75.455 7.4h-49.86V3.334h49.86z"></path><path fill="#186e23" d="M50.525 28.474c-13.454 0-24.4 10.946-24.4 24.402s10.946 24.4 24.4 24.4c13.454 0 24.4-10.946 24.4-24.401s-10.946-24.401-24.4-24.401m0 46.56c-12.218 0-22.158-9.94-22.158-22.16 0-12.217 9.94-22.158 22.158-22.158 12.218 0 22.158 9.94 22.158 22.16 0 12.217-9.94 22.158-22.158 22.158"></path><path fill="#186e23" d="M63.085 44.079 45.628 61.536l-7.232-7.232a1.121 1.121 0 1 0-1.586 1.586l8.025 8.024a1.118 1.118 0 0 0 1.585 0l18.25-18.25a1.121 1.121 0 1 0-1.585-1.585"></path></svg></svg>